<?xml version="1.0" encoding="iso-8859-1"?>
<!-- Generator: Adobe Illustrator 21.0.1, SVG Export Plug-In . SVG Version: 6.00 Build 0)  -->
<svg version="1.1" id="Layer_1" xmlns="http://www.w3.org/2000/svg" xmlns:xlink="http://www.w3.org/1999/xlink" x="0px" y="0px"
	 viewBox="0 0 150 150" style="enable-background:new 0 0 150 150;" xml:space="preserve">
<g>
	<ellipse style="display:none;fill:#FFFFFF;" cx="74.8" cy="56.7" rx="49.1" ry="46.7"/>
	<g>
		<polygon style="fill:#1C4693;" points="119.4,56.7 82.7,64.2 74.8,99 67,64.2 30.3,56.7 67,49.2 74.8,14.4 82.7,49.2 		"/>
		<polygon style="fill:#ED1C24;" points="74.8,82.1 69.6,61.7 48.1,56.7 69.6,51.7 74.8,31.3 80.1,51.7 101.5,56.7 80.1,61.7 		"/>
		<path style="fill:#1C4693;" d="M74.8,12.2c25.8,0,46.8,19.9,46.8,44.4s-21,44.4-46.8,44.4S28,81.1,28,56.6
			C28.1,32.1,49,12.2,74.8,12.2 M74.8,14.4c-24.6,0-44.5,19-44.5,42.3c0,23.4,20,42.3,44.5,42.3c24.6,0,44.5-19,44.5-42.3
			C119.4,33.3,99.4,14.4,74.8,14.4"/>
		<polygon style="fill:#FFF200;" points="74.8,67.3 72.2,59.2 63.7,56.7 72.2,54.2 74.8,46.1 77.4,54.2 86,56.7 77.4,59.2 		"/>
	</g>
	<g>
		<path style="fill:#1C4693;" d="M10,118.2h18.2v5.5H16.8v2.7h10.4v5.1H16.8v2.7h11.7v5.5H10V118.2z"/>
		<path style="fill:#1C4693;" d="M43.5,139.5h-7.6l-6.5-21.3h6.8l3.6,12.9h0.1l3.5-12.9h6.9L43.5,139.5z"/>
		<path style="fill:#1C4693;" d="M51.6,118.2h6.9l6.4,11.4H65v-11.4h6.4v21.3h-6.6L58,127.9l0,0v11.6h-6.4V118.2z"/>
	</g>
	<g>
		<path style="fill:#EB2026;" d="M89.3,124.6c0-0.9-0.3-1.4-0.8-1.8s-1.2-0.5-2-0.5c-1.1,0-2.6,0.3-2.6,1.7c0,1.6,3.3,1.7,5.4,2.4
			c3.8,1.3,5.1,3.3,5.1,5.9c0,5.1-5.1,7.5-9.9,7.5c-5,0-9.6-2.2-9.3-7.7h6.5c0,1.2,0.3,1.9,0.8,2.4c0.6,0.5,1.4,0.5,2.5,0.5
			c1.3,0,3-0.7,3-2.1c0-1.6-2.2-1.8-5.3-2.7c-2.7-0.9-5.3-2.2-5.3-5.8c0-4.8,4.8-7,9.2-7c4.7,0,8.9,1.7,8.8,6.9h-6.1V124.6z"/>
		<path style="fill:#EB2026;" d="M100.2,118.2h10.9c4,0,6.6,2.1,6.6,6.9c0,4.3-3.7,8-9.5,8h-4.5l-1.4,6.4h-6.7L100.2,118.2z
			 M104.8,128h2.6c2.7,0,3.6-1,3.6-2.4c0-1.6-1.5-1.9-2.9-1.9h-2.3L104.8,128z"/>
		<path style="fill:#EB2026;" d="M139.4,131.4c-0.4,2.2-2.1,8.6-11.2,8.6c-6.4,0-9.4-4-9.4-9.7c0-6.9,4.4-12.6,11.9-12.6
			c4.9,0,9.3,2.1,9.4,8.4h-6.4c0.1-2-0.9-3.1-3-3.1c-3.8,0-5.1,4.2-5.1,7.2c0,1.8,0.4,4.5,3.5,4.5c2.1,0,3.3-1.4,3.8-3.3
			L139.4,131.4L139.4,131.4z"/>
	</g>
</g>
</svg>
